<svg id="visual" viewBox="0 0 900 600" width="900" height="600" xmlns="http://www.w3.org/2000/svg" xmlns:xlink="http://www.w3.org/1999/xlink" version="1.1"><rect x="0" y="0" width="900" height="600" fill="#FFF"></rect><defs><linearGradient id="grad1_0" x1="33.3%" y1="0%" x2="100%" y2="100%"><stop offset="20%" stop-color="#ffffff" stop-opacity="1"></stop><stop offset="80%" stop-color="#ffffff" stop-opacity="1"></stop></linearGradient></defs><defs><linearGradient id="grad2_0" x1="0%" y1="0%" x2="66.7%" y2="100%"><stop offset="20%" stop-color="#ffffff" stop-opacity="1"></stop><stop offset="80%" stop-color="#ffffff" stop-opacity="1"></stop></linearGradient></defs><g transform="translate(900, 0)"><path d="M0 378.6C-58.4 382.2 -116.8 385.9 -144.9 349.8C-173 313.6 -170.8 237.7 -199.4 199.4C-228 161.1 -287.4 160.5 -322.4 133.6C-357.4 106.6 -368 53.3 -378.6 0L0 0Z" fill="#54bf29"></path></g><g transform="translate(0, 600)"><path d="M0 -378.6C36.6 -340.9 73.3 -303.2 119.8 -289.2C166.3 -275.1 222.7 -284.8 264.5 -264.5C306.2 -244.2 333.2 -193.9 349.8 -144.9C366.3 -95.8 372.5 -47.9 378.6 0L0 0Z" fill="#54bf29"></path></g></svg>